<svg width="2202" height="1030" viewBox="0 0 2202 1030" fill="none" xmlns="http://www.w3.org/2000/svg">
<rect x="90" y="93" width="2077" height="893" fill="white"/>
<rect x="2081" y="931" width="107" height="28" fill="#4B39AA"/>
<path d="M72 488.5V1011H1131H2197V522.888V79.5H1131H72V488.5ZM1895.38 103.717C1919.92 116.265 1907.37 100.822 1898 128.813L1895.38 136.534L1883.11 176.107C1970.38 178.313 2078.99 162.698 2098.71 171.798C2108.5 176.21 2094.3 176.245 2098.71 185.759C2101.33 191.412 2098.71 192.584 2098.71 203.339C2098.71 214.646 2118.74 205.373 2115.57 212.129C2112.39 218.886 2098.71 230.227 2084.75 242.636L2059.73 265.456L2067.72 272.902C2072.13 277.039 2077.24 281.038 2079.17 281.727C2080.96 282.416 2096.12 282.968 2112.81 282.968C2129.35 282.968 2143 283.382 2143 283.795C2143 284.209 2140.93 287.104 2138.31 290.276C2135.83 293.447 2129.63 302.41 2124.67 310.269L2115.57 324.471L2123.15 336.191C2146.17 371.352 2158.17 411.615 2158.17 453.118C2158.17 474.766 2156.24 489.52 2149.21 522.888C2141.35 559.978 2138.87 579.834 2137.9 613.202C2137.07 642.434 2137.21 643.813 2140.24 652.086L2143.42 660.772L2140.66 667.253C2138.18 672.906 2137.76 678.146 2136.94 703.655C2135.42 757.567 2130.87 790.108 2120.11 822.098C2113.5 841.815 2098.47 872.426 2091.44 880.837C2089.09 883.594 2084.96 890.351 2082.34 895.728C2076.55 907.586 2082.75 905.656 2022.36 913.24C2010.23 914.618 1994.1 916.825 1986.51 917.79C1978.93 918.893 1956.32 921.926 1936.19 924.684C1873.18 933.371 1810.59 942.058 1796.25 944.126C1744.82 951.572 1708.42 955.57 1675.61 957.363C1642.1 959.293 1586.95 958.19 1568.06 955.295C1560.89 954.054 1535.11 950.055 1510.85 946.332C1425.09 932.957 1403.17 931.027 1339.33 931.027C1291.07 931.027 1267.63 931.992 1204.07 936.542C1134.03 941.506 1076.95 944.815 1020.01 946.884C968.307 948.676 918.948 950.744 881.446 952.399C865.453 953.088 867.383 951.985 889.029 948.262C895.923 947.021 920.327 942.471 943.49 937.921C1010.5 924.96 1056.13 916.273 1071.3 913.653C1079.16 912.274 1085.23 911.033 1084.95 910.758C1084.67 910.344 1077.09 910.896 1068.13 911.723C1059.03 912.55 1041.52 914.067 1028.97 915.17C1016.43 916.273 993.814 918.479 978.648 920.134C933.701 924.684 926.669 925.373 886.685 928.958C865.591 930.889 833.052 933.922 814.301 935.853C773.904 939.851 753.36 941.92 684.285 948.262C655.883 950.882 617.691 954.605 599.492 956.398C581.292 958.328 553.993 960.81 538.689 962.051L510.976 964.257L466.994 958.052C339.046 939.851 260.871 935.439 168.908 941.23C148.227 942.609 130.855 943.299 130.303 942.747C129.752 942.195 129.338 928.958 129.338 913.378V884.835L136.508 883.732C140.506 883.043 143.815 882.078 143.815 881.526C143.815 880.975 140.92 877.803 137.473 874.494C130.165 867.324 120.79 853.535 116.516 843.332C112.242 833.129 107.14 812.308 105.348 797.968C104.521 791.074 103.28 770.942 102.452 753.017L101.074 720.614L106.727 705.585C122.031 665.047 125.753 616.649 116.929 574.594C113.207 556.807 111.552 541.916 109.346 506.341C106.727 463.321 106.864 461.942 113.069 447.051C122.858 423.886 128.097 406.237 132.923 380.177C135.68 365.561 135.956 358.529 136.232 319.507L136.37 275.384L141.471 256.908C144.229 246.704 146.572 237.879 146.572 237.328C146.572 236.776 143.677 236.087 140.23 235.811C136.232 235.535 133.336 234.57 132.647 233.329C132.096 232.226 129.338 221.471 126.581 209.337C122.306 191.412 121.755 187.276 123.272 186.173C132.647 179.968 190.83 151.977 222.404 138.464L243.774 129.364L267.213 128.261C288.584 127.158 296.167 127.572 354.764 132.673C546.134 149.082 720.96 151.977 898.681 141.498C907.091 141.084 913.571 140.946 913.157 141.36C912.33 142.187 853.458 156.252 819.402 163.697C807.683 166.317 791.276 169.902 782.866 171.695C774.593 173.625 759.151 176.383 748.673 178.037C738.332 179.692 728.405 181.622 726.613 182.312C723.993 183.553 724.131 183.553 727.716 183.001C730.059 182.588 756.669 179.554 787.002 176.107C817.334 172.66 855.526 168.386 871.795 166.455C888.064 164.663 921.292 160.802 945.558 158.182C1096.26 141.36 1126.31 138.051 1139.96 136.12C1148.37 135.017 1167.54 132.811 1182.7 131.294C1197.87 129.64 1226.13 126.468 1245.44 124.262C1264.74 122.056 1305.41 117.506 1335.74 114.059C1366.08 110.612 1494.13 96.5819 1513.43 94.2379C1532.73 91.8938 1418.47 127.709 1448.8 124.262C1513.05 117.23 1694.25 108.819 1737.82 103.717C1867.08 103.717 1883.38 97.6505 1895.38 103.717ZM2096.12 935.025C2093.09 935.853 2092.68 936.68 2092.68 942.058V948.262H2098.88C2104.26 948.262 2105.09 947.849 2105.91 944.815C2106.74 941.644 2106.88 941.782 2107.02 945.78L2107.15 950.331H2098.88H2090.61V943.023C2090.61 934.612 2091.16 933.784 2095.99 933.922L2099.57 934.06L2096.12 935.025ZM2166.17 941.92C2166.58 947.297 2166.44 947.573 2162.3 947.573C2158.58 947.573 2158.17 947.159 2158.17 943.436C2158.17 940.265 2158.72 939.3 2160.93 939.3C2162.44 939.3 2163.68 938.335 2163.68 937.094C2163.68 932.544 2165.89 936.68 2166.17 941.92ZM2168.79 944.402C2168.51 946.608 2168.23 945.091 2168.23 941.368C2168.23 937.507 2168.51 935.853 2168.79 937.507C2169.06 939.3 2169.06 942.333 2168.79 944.402ZM2119.56 937.921C2119.56 938.61 2118.6 938.886 2117.5 938.473C2116.39 937.921 2115.43 938.197 2115.43 939.024C2115.43 939.714 2116.67 940.679 2118.32 941.092C2122.18 942.195 2121.22 946.746 2116.94 947.297C2115.15 947.573 2113.08 947.021 2112.12 946.194C2111.02 944.953 2111.57 944.815 2114.46 945.505C2116.81 946.194 2118.19 945.918 2118.19 944.953C2118.19 944.126 2117.36 943.436 2116.25 943.436C2113.64 943.436 2112.26 941.092 2113.22 938.61C2114.05 936.266 2119.56 935.715 2119.56 937.921ZM2156.79 938.059C2156.79 938.886 2155.82 939.3 2154.72 938.886C2153.62 938.335 2152.38 938.61 2151.96 939.3C2151.41 940.127 2152.1 940.679 2153.21 940.679C2154.45 940.679 2155.41 941.23 2155.41 942.058C2155.41 942.747 2154.45 943.436 2153.34 943.436C2150.17 943.436 2150.86 945.918 2154.45 946.608C2157.07 947.159 2156.93 947.159 2153.76 947.435C2150.17 947.573 2149.9 947.159 2149.9 942.058C2149.9 937.094 2150.31 936.542 2153.34 936.542C2155.27 936.542 2156.79 937.232 2156.79 938.059ZM2099.57 939.3C2097.09 940.403 2097.09 940.541 2099.3 940.541C2102.47 940.679 2103.98 944.677 2101.5 946.332C2098.88 947.987 2096.12 947.849 2096.12 946.194C2096.12 945.367 2097.09 944.815 2098.19 944.815C2099.3 944.815 2100.26 944.126 2100.26 943.299C2100.26 942.471 2099.02 942.195 2097.5 942.747C2095.57 943.299 2094.75 943.023 2094.75 941.644C2094.75 939.024 2096.12 937.921 2099.43 938.059C2102.33 938.059 2102.33 938.197 2099.57 939.3ZM2175.27 943.161C2175.4 948.814 2172.51 948.952 2171.68 943.436C2170.99 939.024 2171.68 937.645 2173.75 938.335C2174.58 938.61 2175.27 940.679 2175.27 943.161ZM2129.08 943.712C2128.94 947.573 2128.8 947.849 2128.11 945.091C2127.56 943.299 2126.6 941.92 2125.77 941.92C2125.08 941.92 2123.98 943.299 2123.42 945.091C2122.73 947.849 2122.6 947.573 2122.46 943.712C2122.32 939.851 2122.73 939.3 2125.77 939.3C2128.8 939.3 2129.22 939.851 2129.08 943.712ZM2137.49 943.161C2137.49 946.194 2136.8 947.021 2134.04 947.297C2130.87 947.573 2130.59 947.159 2131.15 943.712C2131.42 941.644 2131.83 939.851 2131.83 939.576C2131.97 939.438 2133.21 939.3 2134.73 939.3C2136.8 939.3 2137.49 940.265 2137.49 943.161ZM2147.14 943.436C2147.14 946.332 2146.45 947.573 2144.93 947.573C2143.14 947.573 2143 947.159 2144.38 945.505C2146.04 943.436 2145.21 940.679 2142.86 940.679C2142.18 940.679 2141.62 942.885 2141.62 945.643C2141.62 948.262 2141.07 950.193 2140.52 949.779C2139.56 949.228 2139.42 944.402 2140.11 940.265C2140.11 939.714 2141.76 939.3 2143.69 939.3C2146.59 939.3 2147.14 939.989 2147.14 943.436Z" fill="#4B39AA"/>
<path d="M1771.87 234.776C1770.31 235.524 1768.35 238.218 1767.57 241.061L1766 246L1770.96 240.463C1776.05 234.477 1776.31 232.831 1771.87 234.776Z" fill="#4B39AA"/>
<path d="M181.108 221.156C180.645 225.2 177.254 238.578 173.862 251.178C170.471 263.622 167.387 277.778 166.925 282.444L166 291L182.032 275.444C214.714 243.867 242 216.333 242 215.244C242 214.622 228.588 214 212.093 214H182.187L181.108 221.156Z" fill="#4B39AA"/>
<path d="M481.789 226.326L480.716 235.653H461.258C399.819 235.653 344.508 255.239 297.778 293.322C283.682 304.824 264.224 325.498 255.184 338.866C246.757 350.991 229.597 383.944 229.597 387.83C229.597 389.385 228.984 391.095 228.218 391.872C226.686 393.582 223.009 407.105 219.485 423.737C218.259 429.333 216.881 447.831 216.421 464.929L215.502 496.018L185.778 538.298C169.384 561.614 155.288 582.443 154.522 584.619C150.998 594.101 153.756 606.381 161.11 613.065C163.102 615.086 168.924 618.35 173.827 620.371L182.867 624.101L182.407 636.381C181.794 648.661 181.794 648.817 187.31 655.034C190.374 658.454 192.826 662.34 192.826 663.739C192.826 665.138 190.834 669.179 188.229 672.755C185.778 676.174 183.633 681.148 183.633 683.48C183.633 688.454 186.544 695.76 188.536 695.76C189.149 695.76 189.762 697.159 189.762 698.869C189.762 700.579 189.149 701.978 188.229 701.978C187.463 701.978 186.697 702.599 186.697 703.532C186.697 704.309 188.995 705.086 191.907 705.086C194.818 705.086 197.729 705.864 198.342 706.796C198.801 707.729 199.874 718.765 200.487 731.201C202.019 759.646 205.389 772.082 214.736 782.496C230.21 799.439 240.935 799.595 313.712 784.517C342.67 778.455 367.184 773.481 368.103 773.481C369.023 773.481 372.853 778.921 376.53 785.605C383.425 798.04 408.552 841.253 421.422 862.704C426.938 872.186 428.317 875.606 427.091 877.16C425.712 878.715 426.019 879.181 428.47 879.181C430.309 879.181 431.994 880.424 432.607 882.134C433.066 883.844 434.905 886.953 436.59 889.129C441.34 895.347 450.073 894.414 492.973 883.844C534.341 873.585 581.838 861.927 632.552 849.647C686.943 836.279 687.709 835.968 687.709 825.709C687.709 820.424 685.871 815.916 664.421 769.595C658.445 756.693 651.551 741.771 649.099 736.33C646.801 730.89 639.447 715.346 633.012 701.667L621.367 676.796L625.198 668.713C627.343 664.361 634.85 652.703 641.745 642.91C687.862 578.246 704.256 538.764 709.159 480.784C711.764 448.919 708.393 421.872 697.975 392.649C677.904 336.224 637.608 291.301 581.991 263.477C557.936 251.353 523.31 240.161 502.779 237.829C497.417 237.363 493.127 236.119 493.127 235.187C493.127 234.254 495.272 229.902 497.723 225.238L502.32 217H492.514H482.861L481.789 226.326ZM510.133 265.809C542.002 272.648 567.129 282.752 591.95 299.073C659.518 343.219 693.838 417.053 682.347 493.375C676.065 535.344 662.276 567.987 633.165 609.49C600.377 656.433 596.24 664.361 597.772 680.06C598.538 688.921 600.377 693.428 617.231 729.18C638.987 775.191 655.687 813.118 655.228 815.294C654.921 816.849 649.099 818.87 636.382 821.978C626.27 824.31 612.787 827.73 606.505 829.284C580.612 836.279 565.138 839.077 545.986 840.165L525.608 841.253L519.48 846.849C514.27 851.512 511.053 853.067 498.336 855.865C489.909 857.73 476.733 861.15 468.765 863.326C454.517 867.212 454.21 867.212 452.218 864.259C450.993 862.704 435.671 836.435 418.051 806.123C400.432 775.812 384.344 749.543 382.199 747.988C378.369 745.035 378.062 745.035 356.459 749.232C344.355 751.563 329.034 754.828 322.292 756.382C297.012 762.289 257.636 769.128 248.596 769.284C236.339 769.439 232.508 766.797 228.984 756.071C225.767 745.812 223.469 700.423 226.227 700.423C227.299 700.423 228.065 697.781 228.065 693.739C228.065 685.967 231.436 674.309 235.266 668.402C238.637 663.117 237.258 663.739 223.622 674.62C214.889 681.615 213.816 682.081 214.889 678.661C219.792 661.718 219.485 656.278 212.437 645.086C207.994 637.936 207.994 637.159 208.913 625.811C210.445 608.402 208.76 605.604 192.06 599.231C184.859 596.588 179.036 593.946 179.036 593.324C179.036 592.858 192.673 572.961 209.526 549.334L239.863 506.277L240.782 475.499C242.008 436.639 245.225 416.121 253.346 396.535C266.675 364.514 282.15 342.441 306.818 319.902C342.517 287.57 388.021 267.519 438.429 262.078C458.653 259.902 490.062 261.612 510.133 265.809Z" fill="#4B39AA"/>
<path d="M429.364 318.943C421.564 320.186 405.503 326.09 394.949 331.373C382.253 337.744 368.334 349.087 358.391 361.517C344.319 378.92 333 410.307 333 432.06C333 439.208 333.612 441.383 336.824 444.646L340.648 448.531L372.005 448.065C397.855 447.754 403.667 447.132 405.656 445.112C407.032 443.869 409.327 437.499 410.703 431.128C416.21 407.976 428.753 397.1 450.32 397.1C466.687 397.1 480.606 407.976 485.348 424.447C488.407 435.323 487.489 443.092 481.83 454.435C478.311 461.427 475.558 464.38 467.604 469.507C436.401 489.862 423.552 506.022 414.833 536.166C411.315 548.285 410.703 553.258 410.397 572.991C410.092 604.844 407.797 602.98 448.637 602.98H480.147L483.818 598.629C487.183 594.589 487.489 592.88 487.489 579.051C487.489 562.425 489.936 552.791 495.596 546.576C497.431 544.556 504.315 539.273 510.739 535.078C524.811 525.911 542.096 507.731 549.438 494.213C568.558 459.563 570.087 420.407 553.873 385.291C534.754 344.115 492.996 317.389 448.637 318.011C440.072 318.166 431.506 318.632 429.364 318.943ZM469.593 346.601C499.573 352.971 526.647 379.075 535.671 410.307C539.495 423.204 539.495 448.997 535.824 461.583C530.012 481.782 512.116 504.779 494.525 515.034C474.64 526.532 465.31 540.827 462.557 564.134L460.874 577.342H448.026H435.024L435.942 564.445C438.236 532.903 449.249 513.48 475.099 495.922C492.69 483.802 500.644 475.722 506.303 463.758C528.023 418.853 494.066 367.733 444.66 371.151C438.389 371.617 430.129 373.171 426.305 374.725C407.95 382.028 393.113 397.876 387.912 415.745L386.077 421.65L374.911 422.737C368.793 423.359 362.98 423.204 361.909 422.737C358.085 420.251 365.427 396.944 374.452 383.737C379.959 375.502 391.736 364.003 401.22 357.633C418.504 345.979 445.884 341.473 469.593 346.601Z" fill="#4B39AA"/>
<path d="M414.245 645.718C409.477 650.52 408.554 657.955 409.169 687.386L409.631 712.016L414.707 716.508L419.629 721L443.164 720.845C471.928 720.845 480.849 719.451 484.541 714.804C486.848 711.861 487.31 708.298 487.31 690.794V670.192L493.924 669.263C497.462 668.798 504.076 668.024 508.537 667.404C512.844 666.784 516.536 665.855 516.536 665.08C516.536 664.306 516.689 663.376 516.997 662.912C517.151 662.447 511.306 661.827 504.076 661.518C489.156 660.898 487.31 660.278 487.31 655.631C487.31 653.773 485.772 649.9 483.926 647.112L480.388 642H449.163C418.399 642 417.937 642 414.245 645.718ZM460.853 681.035L461.314 694.667H448.086H435.011V681.5V668.488L443.933 667.869C461.622 666.784 460.391 665.7 460.853 681.035Z" fill="#4B39AA"/>
<path d="M1502.68 325.21C1483.29 326.915 1450.46 336.061 1448.94 340.091C1448.33 341.641 1459.63 374.192 1461.31 376.052C1461.76 376.362 1467.41 374.967 1473.98 372.797C1492.15 366.907 1499.17 365.512 1512 365.512C1527.11 365.512 1534.6 367.837 1540.09 374.347C1545.74 380.702 1546.05 387.678 1541.16 395.118C1536.12 402.713 1526.66 405.658 1506.2 405.813H1489.71V425.034V444.41L1512.3 444.875C1543.15 445.495 1550.93 449.68 1551.09 465.181C1551.24 474.481 1548.03 480.371 1540.09 484.867C1533.68 488.432 1531.85 488.742 1513.37 488.742C1495.81 488.587 1492 488.122 1479.78 484.247C1458.56 477.271 1459.63 476.961 1452.75 494.167C1449.55 502.227 1446.65 510.133 1446.19 511.528C1445.12 514.628 1448.48 516.798 1458.86 519.588C1462.83 520.673 1471.23 522.998 1477.49 524.858C1504.06 532.143 1521.92 532.918 1543.15 527.338C1565.9 521.448 1581.47 510.753 1589.72 495.562C1593.53 488.432 1594.3 485.022 1594.76 473.086C1595.37 461.461 1594.91 457.74 1592.47 452.005C1588.04 442.085 1580.71 434.335 1571.39 429.839C1566.81 427.669 1562.84 425.344 1562.39 424.569C1561.78 423.794 1563.76 421.624 1566.66 419.919C1574.3 415.114 1583.61 404.108 1586.05 397.133C1589.41 387.368 1588.65 367.837 1584.53 358.227C1577.2 341.331 1560.86 330.48 1535.51 325.83C1522.99 323.505 1522.69 323.505 1502.68 325.21Z" fill="#4B39AA"/>
<path d="M795.923 329.269C795.462 330.507 795 375.082 795 428.17C795 511.903 795.308 524.75 797.308 526.452C799.155 528 804.234 528 819.316 527.071L838.861 525.678L839.323 484.972L839.631 444.421H846.249C854.713 444.576 863.947 448.91 872.719 457.113C882.261 465.78 886.57 472.281 899.806 497.974C905.962 509.737 912.272 521.345 913.811 523.666L916.735 528H937.819C949.362 528 959.827 527.381 961.058 526.607C963.366 525.059 963.213 524.595 939.204 479.246C932.587 466.399 924.738 452.779 921.814 448.91C915.811 440.552 905.654 431.885 897.497 428.015C890.88 424.765 890.572 423.217 896.266 421.05C903.961 418.11 915.965 407.585 921.814 398.917C928.277 389.167 958.134 331.281 958.134 328.495C958.134 327.256 951.978 326.792 934.741 327.102L911.348 327.566L898.113 353.104C883.339 381.583 873.643 393.965 860.715 400.465C856.56 402.632 850.25 404.489 846.71 404.644L840.4 404.954L839.631 366.26L838.861 327.566L817.931 327.102C799.771 326.792 796.847 327.102 795.923 329.269Z" fill="#4B39AA"/>
<path d="M1015.64 334.08C1015.49 338.586 1015.33 383.492 1015.03 433.992C1014.88 498.166 1015.33 525.98 1016.4 526.757C1017.32 527.378 1036.99 528 1060.02 528C1106.98 528 1122.54 526.135 1138.4 518.832C1150.6 513.238 1155.94 508.266 1161.43 498.166C1165.85 490.397 1166 488.998 1166 471.285C1166 453.882 1165.7 452.172 1161.88 445.646C1156.85 436.789 1150.75 430.885 1143.58 427.777C1140.38 426.534 1137.79 424.514 1137.79 423.426C1137.79 422.338 1140.84 419.231 1144.5 416.589C1167.37 400.118 1167.52 359.408 1144.8 341.072C1129.4 328.797 1113.69 326 1059.1 326H1015.79L1015.64 334.08ZM1106.37 368.575C1113.54 371.528 1116.44 376.5 1116.44 385.512C1116.44 400.274 1104.85 405.712 1075.11 404.935L1059.25 404.469L1058.8 385.357L1058.34 366.4H1079.84C1094.78 366.4 1102.87 367.022 1106.37 368.575ZM1111.86 447.511C1120.1 451.706 1122.54 456.212 1122.54 466.778C1122.54 472.683 1121.62 475.946 1119.18 479.054C1113.08 486.978 1107.59 488.066 1072.67 487.755L1058.49 487.6V465.846V444.092H1081.82C1103.02 444.092 1105.76 444.403 1111.86 447.511Z" fill="#4B39AA"/>
<path d="M1222.51 327.866C1222.06 328.955 1221.9 374.369 1222.06 428.647L1222.51 527.406L1247.93 527.873C1272.58 528.184 1273.34 528.184 1276.54 524.762C1278.36 522.74 1291.3 497.39 1305.3 468.306C1342.74 390.854 1343.95 388.21 1345.17 388.21C1347.3 388.21 1347.61 392.41 1346.24 404.385C1345.63 411.228 1345.17 441.711 1345.32 472.039L1345.78 527.406L1364.8 527.873C1375.3 528.028 1384.89 527.562 1386.11 526.628C1388.09 525.384 1388.39 514.031 1388.85 443.111C1389.15 398.008 1389 353.062 1388.39 343.419L1387.33 326H1360.39H1333.3L1316.87 360.527C1307.74 379.656 1292.97 410.762 1283.84 429.736C1265.28 468.928 1261.93 472.661 1263.91 452.287C1264.52 445.755 1265.12 414.805 1265.12 383.545V326.778L1244.12 326.311C1228.3 326 1222.97 326.467 1222.51 327.866Z" fill="#4B39AA"/>
<path d="M1731.77 327.709C1729.15 329.108 1729 335.634 1729 427.62C1729 516.032 1729.31 526.132 1731.46 527.065C1735.62 528.618 1820.32 528.152 1830.02 526.288C1849.89 522.869 1858.51 518.829 1868.68 508.574C1879.92 497.231 1883 488.996 1883 469.729C1883 458.696 1882.38 455.744 1878.38 447.82C1873.14 437.098 1869.45 433.214 1859.9 428.086C1856.2 426.222 1852.97 423.891 1852.66 423.114C1852.51 422.182 1855.13 419.851 1858.67 417.676C1872.22 409.285 1879.92 389.396 1876.84 370.439C1874.38 354.746 1863.44 340.606 1848.66 334.08C1833.26 327.243 1822.48 326 1777.2 326C1751.02 326 1733.31 326.777 1731.77 327.709ZM1821.4 368.886C1835.72 374.635 1836.03 394.524 1821.86 401.516C1817.4 403.536 1811.24 404.468 1796.3 404.934C1784.9 405.4 1775.82 404.934 1775.05 404.157C1772.74 401.827 1771.66 387.842 1772.89 376.655L1773.97 366.399H1794.6C1810 366.399 1816.78 367.021 1821.4 368.886ZM1823.09 445.8C1832.18 448.597 1836.8 454.501 1837.88 464.756C1838.65 473.147 1838.65 473.458 1832.49 479.984L1826.17 486.821L1799.99 487.287L1773.66 487.753V465.999V444.091H1795.37C1807.39 444.091 1819.86 444.867 1823.09 445.8Z" fill="#4B39AA"/>
<path d="M168.196 363C167.779 364.65 168.057 366 168.751 366C169.445 366 170 364.65 170 363C170 361.35 169.722 360 169.445 360C169.167 360 168.612 361.35 168.196 363Z" fill="#4B39AA"/>
<path d="M868.631 581.348C855.598 582.749 837.197 589.444 827.077 596.605C816.497 603.923 807.756 614.821 801.316 628.366C792.423 647.36 790.276 659.66 791.196 689.397C791.656 711.038 792.423 716.02 795.949 727.074C800.856 742.176 812.05 760.08 822.017 768.487C846.244 788.883 882.585 793.553 921.84 781.254C940.087 775.493 939.32 777.05 932.726 758.367C929.66 749.649 926.593 741.397 925.98 740.463C925.06 738.906 921.686 739.373 910.953 742.487C893.625 747.78 874.765 748.403 864.031 744.2C854.678 740.463 844.557 729.098 839.804 717.109C837.044 709.948 836.124 704.187 835.511 688.462C834.744 665.732 836.737 655.923 845.171 641.911C850.384 633.193 852.531 631.48 863.571 625.719C872.158 621.204 894.545 621.36 909.726 626.186C915.706 627.899 921.686 629.456 922.913 629.456C925.673 629.456 937.02 599.096 936.1 594.27C935.487 591 919.386 585.084 901.906 581.815C888.565 579.479 886.419 579.479 868.631 581.348Z" fill="#4B39AA"/>
<path d="M2007.08 583.216C1984.4 589.436 1964.78 605.297 1955.28 625.2C1952.21 631.576 1948.23 642.461 1946.23 649.302L1942.86 661.742H1927.23H1911.44V623.801C1911.44 595.345 1910.98 585.548 1909.61 584.304C1908.38 583.371 1900.1 583.06 1887.38 583.527L1867 584.46V684.445V784.586H1888.46C1900.26 784.586 1910.07 784.43 1910.22 784.119C1910.22 783.964 1910.83 765.304 1911.29 742.601L1912.21 701.394H1927.38H1942.56L1945.31 713.057C1946.85 719.432 1950.07 730.006 1952.67 736.226L1957.27 747.888L1951.14 762.66C1947.61 770.902 1944.39 778.521 1944.09 779.454C1943.63 780.698 1944.55 781.476 1946.23 781.476C1948.69 781.476 1957.42 784.43 1967.08 788.473C1969.84 789.562 1969.84 789.406 1967.38 783.653C1964.78 777.122 1955.43 747.888 1957.27 747.888C1957.88 747.888 1968.76 761.572 1973.05 765.926C1990.68 783.653 2022.56 791.583 2051.52 785.363C2084.63 778.21 2107.61 754.264 2116.81 717.1C2120.79 701.394 2121.1 668.584 2117.42 651.946C2109.76 616.959 2086.92 591.457 2055.97 583.216C2044.93 580.261 2017.65 580.261 2007.08 583.216ZM2049.07 625.822C2057.81 630.332 2065.93 639.506 2069.3 648.836C2080.33 678.847 2075.12 719.743 2058.27 735.759C2050.45 743.223 2042.94 746.178 2031.29 746.178C2014.59 746.178 2003.4 738.558 1995.58 721.92C1989.3 708.236 1987.61 697.818 1988.53 678.07C1990.07 644.638 2000.64 628.155 2024.09 622.246C2029.61 620.846 2043.4 622.868 2049.07 625.822Z" fill="#4B39AA"/>
<path d="M986.114 583.665C985.192 584.133 984.884 592.717 985.038 603.174L985.499 621.747L1014.88 622.215C1043.95 622.527 1044.41 622.683 1045.33 626.117C1045.79 627.99 1046.25 664.511 1046.25 707.275V785L1067.48 784.532L1088.55 784.064L1089.01 703.373L1089.32 622.527L1118.24 622.215L1147 621.747V602.55V583.353L1067.33 583.041C1023.34 582.885 986.883 583.197 986.114 583.665Z" fill="#4B39AA"/>
<path d="M1190.29 583.094L1186 583.72L1198.58 608.267C1205.48 621.712 1214.22 638.754 1218.06 646.103C1247.66 703.483 1251.65 713.176 1249.96 725.371C1248.12 739.443 1239.07 746.166 1222.2 746.166H1212.08L1212.54 765.24L1213 784.471L1225.57 784.94C1255.95 786.034 1280.64 772.119 1296.29 745.384C1305.34 729.749 1372.06 585.44 1370.99 583.72C1370.53 582.938 1360.1 582.313 1347.67 582.469L1325.12 582.782L1310.86 613.27C1303.04 629.999 1294.14 650.793 1291.22 659.392C1288.16 667.992 1285.09 676.122 1284.48 677.372C1282.02 682.219 1279.11 679.561 1276.35 670.024C1273.59 660.8 1261.47 635.471 1241.83 597.948L1233.4 582L1214.07 582.156C1203.33 582.313 1192.6 582.782 1190.29 583.094Z" fill="#4B39AA"/>
<path d="M1422.74 585.939C1422.28 587.654 1421.82 614.631 1421.66 645.975C1421.2 702.736 1421.2 702.892 1417.36 711.468C1411.82 724.255 1401.99 741.564 1399.22 743.748C1397.83 744.839 1393.53 745.775 1389.38 745.775H1382V792.4C1382 828.266 1382.46 839.181 1384 839.649C1384.92 840.117 1393.99 840.117 1403.83 839.649L1421.82 839.025L1422.28 834.815C1422.59 831.852 1423.81 830.605 1426.58 830.293C1433.19 829.357 1433.81 826.862 1427.35 826.862H1421.51L1422.43 807.214C1422.89 796.299 1423.97 786.786 1424.74 786.007C1425.35 785.383 1453.33 784.915 1486.69 785.071L1547.26 785.539L1547.72 812.36L1548.03 839.337H1568.01H1588V792.556V745.931L1576.93 745.463L1565.71 744.995L1564.63 738.758C1564.02 735.327 1563.86 699.461 1564.33 659.073C1565.09 604.339 1564.94 585.315 1563.56 584.535C1562.63 583.912 1530.66 583.288 1492.53 583.132C1424.58 582.82 1423.35 582.82 1422.74 585.939ZM1520.05 682.464C1520.2 724.723 1519.9 742.188 1518.67 743.592C1517.28 745.307 1510.06 745.775 1484.85 745.775C1467.32 745.775 1452.56 745.151 1452.1 744.371C1451.64 743.592 1453.18 738.602 1455.64 733.144C1464.4 713.34 1465.32 706.323 1466.09 662.66L1466.86 622.584L1493.15 622.896L1519.59 623.364L1520.05 682.464Z" fill="#4B39AA"/>
<path d="M1654.73 583.467L1640.45 584.09V684.357V784.781H1658.11C1667.78 784.781 1692.86 784.002 1692.86 784.781C1692.86 786.182 1669 788.829 1641.99 792.566C1634.77 793.5 1623.11 795.524 1615.89 797.081L1603 799.728L1622.95 801.752C1640.45 803.464 1643.68 803.464 1647.51 801.44C1653.65 798.326 1666.7 795.68 1676.37 795.68C1684.2 795.68 1684.51 795.524 1690.95 787.428C1696.94 780.266 1717.2 740.096 1753.43 663.65C1764.02 641.541 1766.78 640.607 1765.25 659.758C1764.48 667.387 1764.02 698.37 1764.02 728.731V784.002H1785.51H1807V683.579V583.155H1779.52H1752.2L1749.28 588.605C1747.6 591.563 1737.47 612.582 1726.57 635.313C1700.93 689.028 1686.66 718.143 1684.66 720.634C1681.28 724.683 1680.52 719.856 1682.05 704.598C1682.82 696.035 1683.28 665.207 1683.13 636.092L1682.67 583.155L1675.76 583C1671.92 583 1662.4 583.155 1654.73 583.467Z" fill="#4B39AA"/>
<path d="M1706.1 621.942L1700.71 618.218L1701.04 630.452C1701.15 637.234 1700.93 644.282 1700.38 646.277C1699.61 649.867 1699.72 650 1703.44 650H1707.28V640.957C1707.38 632.181 1707.28 634.408 1712.34 623.271C1713.22 620.878 1714.59 606.749 1706.1 621.942Z" fill="#4B39AA"/>
<path d="M1767.25 859.834C1762.73 861.411 1750.38 864.852 1739.82 867.719C1726.93 871.016 1723.09 872.45 1728.16 871.877C1740.37 870.586 1787.96 863.848 1803.6 861.268L1818 858.83L1803.05 857.827C1781.79 856.393 1776.58 856.68 1767.25 859.834Z" fill="#4B39AA"/>
</svg>
